<?xml version="1.0" encoding="UTF-8" standalone="no"?> <svg id="Layer_1" data-name="Layer 1" xmlns="http://www.w3.org/2000/svg" viewBox="0 0 64 64"><defs><style>.cls-1{fill:#ed4720;}.cls-2{fill:#c8f0fc;}.cls-3{fill:#78e6f9;}.cls-4{fill:#a7adaf;}.cls-5{fill:#78deef;}.cls-6{fill:#4fb8c9;}.cls-7{fill:#606668;}.cls-8{fill:#beedfc;}.cls-9{fill:#8c9193;}.cls-10{fill:#3f4e56;}.cls-11{fill:#55d5f2;}.cls-12{fill:#4a98d3;}.cls-13{fill:#1493b0;}.cls-14{fill:#81dfef;}</style></defs><title>transportation-airplane-truck-boat-transport-carry-logistics</title><rect class="cls-1" x="13" y="31" width="4" height="5"/><polygon class="cls-2" points="22 35 8 35 6 46 24 46 22 35"/><path class="cls-3" d="M15,35.5c0-.169.016-.333.025-.5H8L6,46H24l-.275-1.514A8.994,8.994,0,0,1,15,35.5Z"/><rect class="cls-4" x="11" y="38" width="8" height="2"/><polygon class="cls-5" points="18 2 13 2 13 12 21 12 18 2"/><rect class="cls-6" x="32" y="40" width="20" height="18"/><path class="cls-7" d="M10.674,61c2.167,0,2.167-2,4.335-2s2.165,2,4.33,2c1.746,0,2.1-1.286,3.3-1.79L27,47,15,43,3,47,7.359,59.207C8.57,59.707,8.921,61,10.674,61Z"/><path class="cls-8" d="M53.282,15.306A11.277,11.277,0,0,0,45.306,12H13l6,6,37,.022Z"/><path class="cls-1" d="M56.379,18.405,56,18.026,19,18l.247.246A12.788,12.788,0,0,0,28.293,22h26.6A2.106,2.106,0,0,0,56.379,18.405Z"/><polygon class="cls-9" points="16 43.333 15 43 14 43.333 14 59 16 59 16 43.333"/><polygon class="cls-3" points="59 44 52 44 52 58 62 58 62 50 59 44"/><circle class="cls-10" cx="55" cy="58" r="3"/><polygon class="cls-11" points="29 4 31 12 37 12 32 4 29 4"/><rect class="cls-9" x="24" y="15" width="1.999" height="2"/><rect class="cls-9" x="28" y="15" width="1.999" height="2"/><rect class="cls-9" x="32" y="15" width="1.999" height="2"/><rect class="cls-9" x="36" y="15" width="1.999" height="2"/><path class="cls-9" d="M53.982,16.007l-.7-.7c-.107-.108-.225-.2-.337-.306H44v2h9.982Z"/><polygon class="cls-11" points="30.989 20 26.992 29 29.99 30 36.986 20 30.989 20"/><path class="cls-12" d="M28,62a3.877,3.877,0,0,1-2.844-1.265,1.871,1.871,0,0,0-2.973,0,3.827,3.827,0,0,1-5.688,0,1.873,1.873,0,0,0-2.975,0,3.834,3.834,0,0,1-5.692,0A1.943,1.943,0,0,0,6.337,60a1.946,1.946,0,0,0-1.491.735A3.88,3.88,0,0,1,2,62V60a1.945,1.945,0,0,0,1.491-.735,3.835,3.835,0,0,1,5.693,0,1.877,1.877,0,0,0,2.979,0,3.831,3.831,0,0,1,5.69,0,1.871,1.871,0,0,0,2.972,0,3.828,3.828,0,0,1,5.688,0A1.935,1.935,0,0,0,28,60Z"/><rect class="cls-9" x="40.001" y="15" width="1.999" height="2"/><polygon class="cls-2" points="56 44 56 50 62 50 59 44 56 44"/><path class="cls-13" d="M36,41c0-.338.032-.667.051-1H32V58H48.126A17.992,17.992,0,0,1,36,41Z"/><path class="cls-11" d="M15,5a7.96,7.96,0,0,1,.587-3H13V12h6.13A8,8,0,0,1,15,5Z"/><path class="cls-9" d="M15.358,38H11v2h5.217A8.935,8.935,0,0,1,15.358,38Z"/><polygon class="cls-14" points="18 2 13 2 13 12 21 12 18 2"/><path class="cls-11" d="M14,2H13V12h8l-.652-2.173A8,8,0,0,1,14,2Z"/><circle class="cls-10" cx="40" cy="58" r="3"/></svg>