<?xml version="1.0" encoding="UTF-8" standalone="no"?> <svg enable-background="new 0 0 520 520" height="512" viewBox="0 0 520 520" width="512" xmlns="http://www.w3.org/2000/svg"><g id="_x35__x2C__school_x2C__building"><g id="XMLID_638_"><g id="XMLID_658_"><path id="XMLID_882_" d="m340 490h-160c-5.523 0-10-4.478-10-10v-310c0-3.147 1.482-6.111 4-8l80-60c3.556-2.667 8.445-2.667 12 0l80 60c2.519 1.889 4 4.853 4 8v310c0 5.522-4.478 10-10 10zm-150-20h140v-295l-70-52.5-70 52.5z"/></g><g id="XMLID_657_"><path id="XMLID_879_" d="m180 490h-140c-5.523 0-10-4.478-10-10v-240c0-5.523 4.477-10 10-10h140c5.523 0 10 4.477 10 10v240c0 5.522-4.477 10-10 10zm-130-20h120v-220h-120z"/></g><g id="XMLID_6_"><path id="XMLID_878_" d="m300 490c-5.522 0-10-4.478-10-10v-99.333c0-5.882-4.785-10.667-10.667-10.667h-38.667c-5.881 0-10.667 4.785-10.667 10.667v99.333c0 5.522-4.477 10-10 10s-10-4.478-10-10v-99.333c0-16.91 13.757-30.667 30.667-30.667h38.667c16.91 0 30.667 13.757 30.667 30.667v99.333c0 5.522-4.478 10-10 10z"/></g><g id="XMLID_655_"><path id="XMLID_858_" d="m260 110v-70"/><path id="XMLID_876_" d="m260 120c-5.523 0-10-4.477-10-10v-70c0-5.523 4.477-10 10-10 5.522 0 10 4.477 10 10v70c0 5.523-4.478 10-10 10z"/></g><g id="XMLID_654_"><path id="XMLID_873_" d="m320 90h-60c-5.523 0-10-4.477-10-10v-40c0-5.523 4.477-10 10-10h60c5.522 0 10 4.477 10 10v40c0 5.523-4.478 10-10 10zm-50-20h40v-20h-40z"/></g><g id="XMLID_653_"><path id="XMLID_872_" d="m300 240h-80c-5.523 0-10-4.477-10-10s4.477-10 10-10h80c5.522 0 10 4.477 10 10s-4.478 10-10 10z"/></g><g id="XMLID_652_"><path id="XMLID_871_" d="m300 280h-80c-5.523 0-10-4.478-10-10s4.477-10 10-10h80c5.522 0 10 4.478 10 10s-4.478 10-10 10z"/></g><g id="XMLID_651_"><path id="XMLID_870_" d="m300 320h-80c-5.523 0-10-4.478-10-10s4.477-10 10-10h80c5.522 0 10 4.478 10 10s-4.478 10-10 10z"/></g><g id="XMLID_8_"><path id="XMLID_869_" d="m140 490c-5.523 0-10-4.478-10-10v-50c0-11.028-8.972-20-20-20s-20 8.972-20 20v50c0 5.522-4.477 10-10 10s-10-4.478-10-10v-50c0-22.056 17.944-40 40-40s40 17.944 40 40v50c0 5.522-4.477 10-10 10z"/></g><g id="XMLID_649_"><path id="XMLID_868_" d="m140 370h-60c-5.523 0-10-4.478-10-10s4.477-10 10-10h60c5.523 0 10 4.478 10 10s-4.477 10-10 10z"/></g><g id="XMLID_648_"><path id="XMLID_867_" d="m140 330h-60c-5.523 0-10-4.478-10-10s4.477-10 10-10h60c5.523 0 10 4.478 10 10s-4.477 10-10 10z"/></g><g id="XMLID_647_"><path id="XMLID_866_" d="m140 290h-60c-5.523 0-10-4.478-10-10s4.477-10 10-10h60c5.523 0 10 4.478 10 10s-4.477 10-10 10z"/></g><g id="XMLID_646_"><path id="XMLID_863_" d="m480 490h-140c-5.522 0-10-4.478-10-10v-240c0-5.523 4.478-10 10-10h140c5.522 0 10 4.477 10 10v240c0 5.522-4.478 10-10 10zm-130-20h120v-220h-120z"/></g><g id="XMLID_10_"><path id="XMLID_862_" d="m440 490c-5.522 0-10-4.478-10-10v-50c0-11.028-8.972-20-20-20s-20 8.972-20 20v50c0 5.522-4.478 10-10 10s-10-4.478-10-10v-50c0-22.056 17.944-40 40-40s40 17.944 40 40v50c0 5.522-4.478 10-10 10z"/></g><g id="XMLID_644_"><path id="XMLID_861_" d="m440 370h-60c-5.522 0-10-4.478-10-10s4.478-10 10-10h60c5.522 0 10 4.478 10 10s-4.478 10-10 10z"/></g><g id="XMLID_643_"><path id="XMLID_860_" d="m440 330h-60c-5.522 0-10-4.478-10-10s4.478-10 10-10h60c5.522 0 10 4.478 10 10s-4.478 10-10 10z"/></g><g id="XMLID_642_"><path id="XMLID_859_" d="m440 290h-60c-5.522 0-10-4.478-10-10s4.478-10 10-10h60c5.522 0 10 4.478 10 10s-4.478 10-10 10z"/></g><g id="XMLID_641_"><circle id="XMLID_380_" cx="260" cy="170" r="10"/><path id="XMLID_855_" d="m260 180.5c-5.79 0-10.5-4.71-10.5-10.5s4.71-10.5 10.5-10.5 10.5 4.71 10.5 10.5-4.71 10.5-10.5 10.5zm0-20c-5.238 0-9.5 4.262-9.5 9.5s4.262 9.5 9.5 9.5 9.5-4.262 9.5-9.5-4.262-9.5-9.5-9.5z"/></g><g id="XMLID_640_"><path id="XMLID_852_" d="m420 170c-16.542 0-30-13.458-30-30s13.458-30 30-30 30 13.458 30 30-13.458 30-30 30zm0-40c-5.514 0-10 4.486-10 10s4.486 10 10 10 10-4.486 10-10-4.486-10-10-10z"/></g><g id="XMLID_639_"><path id="XMLID_849_" d="m90 160c-16.542 0-30-13.458-30-30s13.458-30 30-30 30 13.458 30 30-13.458 30-30 30zm0-40c-5.514 0-10 4.486-10 10s4.486 10 10 10 10-4.486 10-10-4.486-10-10-10z"/></g></g></g></svg>